<svg xmlns="http://www.w3.org/2000/svg" xmlns:xlink="http://www.w3.org/1999/xlink" width="1600" zoomAndPan="magnify" viewBox="0 0 1200 675.000002" height="900" preserveAspectRatio="xMidYMid meet" version="1.0"><defs><clipPath id="8dc373ba8f"><path d="M 156 22 L 893 22 L 893 657.605469 L 156 657.605469 Z M 156 22 " clip-rule="nonzero"/></clipPath></defs><g clip-path="url(#8dc373ba8f)"><path fill="#211d1d" d="M 871.089844 443.214844 C 872.03125 453.371094 869.054688 470.550781 852.308594 478.480469 C 853.945312 483.734375 855.832031 493.84375 850.4375 503.132812 C 844.5 513.367188 831.683594 519.335938 812.355469 520.867188 C 810.796875 520.992188 809.292969 521.058594 807.839844 521.058594 C 794.390625 521.058594 785.441406 515.769531 781.160156 505.285156 C 777.035156 506.734375 770.296875 508.148438 763.523438 505.515625 C 756.761719 502.882812 751.667969 496.960938 748.371094 487.898438 C 743.773438 486.335938 732.53125 481.414062 726.601562 469.296875 C 725.238281 466.511719 724.273438 463.539062 723.664062 460.410156 C 716.105469 466.019531 708.285156 470.226562 700.507812 473.351562 C 699.0625 473.933594 697.617188 474.480469 696.171875 474.988281 L 709.058594 516.210938 C 709.789062 516.230469 710.515625 516.25 711.226562 516.292969 C 712.050781 516.332031 712.863281 516.390625 713.648438 516.457031 C 725.203125 517.5 733.261719 521.492188 737.613281 528.347656 C 742.332031 535.769531 741.269531 544.472656 740.074219 549.375 L 750.351562 552.425781 C 763.425781 538.941406 780.929688 531.871094 796.539062 533.910156 C 834.515625 538.871094 855.976562 564.832031 858.664062 609.011719 C 861 611.320312 865.6875 616.820312 865.441406 623.625 C 865.246094 628.882812 862.269531 633.554688 856.589844 637.527344 C 842.671875 647.246094 817.726562 652.449219 786.980469 652.449219 C 776.722656 652.449219 765.824219 651.867188 754.476562 650.6875 C 712.136719 646.277344 676.242188 635.011719 663.035156 621.976562 C 656.398438 615.433594 658.125 607.769531 660.824219 603.070312 C 658.425781 599.675781 654.765625 592.90625 655.546875 583.992188 C 656.101562 577.738281 658.816406 571.59375 660.480469 568.335938 C 653.34375 559.730469 650.464844 551.664062 651.917969 544.320312 C 653.695312 535.339844 661.347656 529.707031 667.550781 526.253906 C 668.9375 525.476562 670.25 524.808594 671.414062 524.246094 L 659.148438 481.585938 C 657.796875 481.628906 656.4375 481.667969 655.117188 481.667969 C 654.050781 481.667969 653 481.648438 651.949219 481.632812 C 628.386719 481.125 609.855469 475.140625 605.035156 473.433594 C 601.617188 474.410156 598.308594 475.226562 595.097656 475.90625 C 593.472656 476.246094 591.878906 476.546875 590.316406 476.820312 L 597.570312 513.984375 C 599.425781 514.339844 601.4375 514.910156 603.511719 515.710938 C 610.605469 518.449219 618.242188 523.753906 621.515625 531.59375 C 624.03125 537.605469 624.847656 547.308594 615.316406 560.125 C 619.695312 565.074219 627.703125 577.226562 624.992188 597.925781 C 627.488281 600.066406 631.503906 604.398438 631.851562 610.289062 C 632.179688 615.804688 629.324219 621.082031 623.375 625.984375 C 599.390625 645.734375 547.328125 657.269531 500.050781 657.269531 C 473.234375 657.269531 447.96875 653.5625 430.207031 645.535156 C 421.652344 641.671875 416.816406 636.507812 415.84375 630.203125 C 414.625 622.273438 420.136719 615.292969 422.792969 612.453125 C 421.644531 594.804688 425.816406 577.207031 434.335938 563.925781 C 445.757812 546.121094 464.867188 535.570312 489.59375 533.410156 C 496.414062 532.820312 519.363281 532.492188 535.761719 552.03125 L 539.03125 551.070312 C 537.21875 546.214844 535.214844 537.882812 538.765625 530.234375 C 540.710938 526.039062 544.007812 522.691406 548.601562 520.195312 C 550.867188 518.960938 553.441406 517.9375 556.328125 517.125 L 550.769531 476.453125 C 545.792969 475.335938 541.351562 473.863281 537.421875 472.203125 C 534.210938 470.84375 531.324219 469.371094 528.789062 467.867188 C 516.351562 460.515625 509.589844 451.503906 507.140625 447.75 C 471.546875 444.488281 443.617188 430.636719 424.085938 406.554688 C 400.820312 377.863281 394.203125 340.832031 392.800781 314.414062 C 387.164062 315.351562 380.667969 316.035156 373.675781 316.035156 C 360.960938 316.042969 346.601562 313.78125 332.785156 306.71875 C 315.984375 298.136719 302.828125 283.824219 293.453125 264.0625 C 284.714844 263.4375 276.105469 260.9375 270.832031 255.199219 C 267.449219 251.519531 264.273438 245.097656 266.824219 234.753906 C 255.878906 232.808594 228.496094 224.792969 217.410156 192.644531 C 207.78125 189.871094 167.433594 176.238281 157.207031 140.058594 C 155.417969 133.71875 155.167969 121.152344 162.132812 114.394531 C 165.539062 111.09375 172.042969 107.921875 183.636719 111.582031 C 190.859375 113.859375 198.058594 119.535156 205.675781 125.53125 C 212.34375 130.789062 219.222656 136.183594 226.59375 139.808594 C 226.691406 139.652344 226.785156 139.496094 226.882812 139.339844 C 227.035156 139.109375 227.203125 138.886719 227.359375 138.652344 C 217.566406 131.320312 193.28125 110.023438 193.644531 79.300781 C 193.808594 65.535156 201.210938 44.339844 220.925781 42.390625 C 234.011719 41.101562 249.496094 50.671875 254.542969 74.984375 C 254.777344 76.117188 255.019531 77.335938 255.277344 78.625 C 257.425781 89.410156 260.625 105.464844 267.894531 112.847656 L 268.613281 112.832031 C 269.371094 112.714844 270.136719 112.621094 270.898438 112.558594 C 265.722656 103.445312 257.179688 84.828125 259.5625 64.585938 C 260.730469 54.617188 268.199219 38.050781 288.867188 39.171875 C 301.238281 39.839844 312.082031 58.492188 316.484375 86.695312 C 320.683594 113.617188 323.171875 121.691406 324.742188 125.839844 C 334.667969 120.179688 361.144531 107.785156 382.796875 121.835938 C 388.183594 125.328125 391.613281 132.878906 391.136719 140.191406 C 390.796875 145.324219 388.195312 154.902344 374.496094 161.4375 C 372.253906 162.507812 369.792969 163.226562 367.410156 163.925781 C 359.804688 166.144531 352.617188 168.246094 349.773438 181.429688 C 349.636719 182.074219 349.503906 182.734375 349.363281 183.421875 C 348.421875 188.109375 347.195312 194.234375 342.695312 201.003906 C 346.878906 202.628906 352.4375 205.71875 355.746094 211.335938 C 359.148438 217.117188 359.433594 224.128906 356.585938 232.171875 C 355 236.671875 352.519531 240.730469 349.144531 244.375 C 351.4375 249.871094 355.054688 255.878906 360.785156 260.96875 C 367.96875 267.335938 377.28125 271.296875 388.609375 272.828125 C 370.351562 234.132812 378.101562 204.652344 388.484375 186.207031 C 398.828125 167.808594 413.3125 157.011719 417.917969 153.882812 C 428.058594 95.25 464.941406 70.082031 494.238281 59.289062 C 522.730469 48.800781 549.03125 49.566406 555.074219 49.910156 C 595.789062 24.480469 634.226562 16.621094 669.335938 26.558594 C 719.617188 40.777344 746.046875 86.410156 750.910156 95.5625 C 783.320312 104.058594 805.519531 119.796875 816.914062 142.363281 C 833.171875 174.570312 822.050781 209.828125 819.101562 217.941406 C 832.25 242.132812 840.195312 265.097656 842.738281 286.257812 C 865.609375 302.3125 898.230469 335.347656 880.269531 385.546875 C 886.484375 391.914062 891.238281 399.367188 892.347656 407.5625 C 894.074219 420.324219 886.929688 432.3125 871.089844 443.214844 " fill-opacity="1" fill-rule="nonzero"/></g><path fill="#ffffff" d="M 654.585938 292.535156 C 654.148438 292.75 653.707031 292.960938 653.261719 293.167969 C 652.738281 293.421875 652.203125 293.667969 651.675781 293.921875 C 651.109375 294.1875 650.539062 294.445312 649.972656 294.710938 C 649.425781 294.964844 648.871094 295.210938 648.324219 295.460938 C 647.75 295.71875 647.175781 295.976562 646.59375 296.230469 C 646.039062 296.476562 645.484375 296.726562 644.917969 296.96875 C 644.324219 297.21875 643.734375 297.472656 643.136719 297.726562 C 642.570312 297.96875 642.007812 298.203125 641.4375 298.441406 C 640.832031 298.691406 640.21875 298.941406 639.609375 299.1875 C 639.03125 299.417969 638.457031 299.648438 637.875 299.878906 C 637.253906 300.125 636.621094 300.367188 635.988281 300.609375 C 635.40625 300.828125 634.824219 301.050781 634.234375 301.277344 C 633.59375 301.511719 632.9375 301.75 632.289062 301.984375 C 631.695312 302.199219 631.101562 302.417969 630.503906 302.628906 C 629.835938 302.863281 629.15625 303.089844 628.476562 303.320312 C 627.886719 303.519531 627.292969 303.726562 626.6875 303.925781 C 625.96875 304.164062 625.238281 304.390625 624.507812 304.625 C 623.933594 304.804688 623.363281 304.996094 622.78125 305.171875 C 621.945312 305.425781 621.101562 305.671875 620.253906 305.921875 C 619.761719 306.066406 619.269531 306.214844 618.777344 306.359375 C 617.4375 306.738281 616.082031 307.113281 614.707031 307.46875 C 614.234375 307.59375 613.753906 307.703125 613.273438 307.824219 C 613.078125 307.878906 612.882812 307.921875 612.6875 307.976562 C 616.457031 319.140625 621.019531 332.355469 624.761719 342.304688 C 638.910156 339.761719 651.359375 335.074219 661.835938 329.058594 C 659.839844 317.199219 656.984375 303.476562 654.585938 292.535156 Z M 558.890625 314.410156 C 557.710938 314.414062 556.511719 314.410156 555.3125 314.398438 C 554.734375 314.390625 554.164062 314.390625 553.585938 314.378906 C 551.761719 314.355469 549.917969 314.3125 548.042969 314.246094 C 547.605469 314.230469 547.191406 314.246094 546.777344 314.257812 C 546.570312 314.265625 546.355469 314.269531 546.148438 314.28125 C 545.828125 314.304688 545.515625 314.339844 545.207031 314.378906 C 545.027344 314.402344 544.84375 314.421875 544.671875 314.441406 C 544.3125 314.5 543.960938 314.574219 543.625 314.660156 C 543.515625 314.683594 543.40625 314.703125 543.296875 314.730469 C 542.851562 314.851562 542.425781 314.988281 542.019531 315.144531 C 541.929688 315.179688 541.851562 315.21875 541.765625 315.253906 C 541.449219 315.386719 541.144531 315.523438 540.84375 315.679688 C 540.71875 315.742188 540.597656 315.824219 540.46875 315.894531 C 540.226562 316.03125 539.996094 316.167969 539.769531 316.324219 C 539.640625 316.410156 539.515625 316.507812 539.386719 316.601562 C 539.1875 316.757812 538.984375 316.910156 538.796875 317.078125 C 538.667969 317.1875 538.554688 317.296875 538.4375 317.40625 C 538.253906 317.578125 538.082031 317.757812 537.910156 317.949219 C 537.851562 318.011719 537.78125 318.070312 537.726562 318.132812 C 537.726562 318.136719 537.726562 318.144531 537.730469 318.148438 C 545.109375 332.9375 567.882812 341.253906 577.820312 342.714844 C 578.117188 342.761719 578.402344 342.796875 578.695312 342.835938 C 571.617188 334.351562 565.628906 323.535156 561.238281 314.386719 C 560.453125 314.398438 559.679688 314.402344 558.890625 314.410156 Z M 699.066406 275.964844 C 698.980469 275.929688 698.902344 275.886719 698.816406 275.859375 C 698.46875 275.722656 698.113281 275.601562 697.746094 275.496094 C 697.6875 275.480469 697.628906 275.46875 697.570312 275.449219 C 697.253906 275.363281 696.925781 275.289062 696.589844 275.222656 C 696.480469 275.199219 696.363281 275.179688 696.25 275.15625 C 695.910156 275.101562 695.5625 275.046875 695.207031 275.011719 C 695.132812 275.007812 695.0625 274.996094 694.992188 274.992188 C 694.566406 274.957031 694.132812 274.9375 693.6875 274.933594 C 693.554688 274.933594 693.417969 274.9375 693.277344 274.9375 C 693.003906 274.945312 692.722656 274.949219 692.4375 274.972656 C 692.277344 274.980469 692.121094 274.996094 691.960938 275.007812 C 691.667969 275.03125 691.375 275.066406 691.074219 275.105469 C 690.921875 275.128906 690.769531 275.144531 690.609375 275.167969 C 690.246094 275.226562 689.878906 275.296875 689.503906 275.375 C 689.40625 275.398438 689.308594 275.410156 689.207031 275.433594 C 688.734375 275.539062 688.25 275.664062 687.753906 275.808594 C 687.617188 275.84375 687.46875 275.894531 687.324219 275.941406 C 686.960938 276.050781 686.597656 276.164062 686.222656 276.296875 C 686.035156 276.359375 685.84375 276.429688 685.65625 276.503906 C 685.308594 276.628906 684.957031 276.761719 684.605469 276.914062 C 684.40625 276.992188 684.210938 277.074219 684.003906 277.160156 C 683.628906 277.328125 683.25 277.5 682.863281 277.683594 C 682.679688 277.769531 682.5 277.851562 682.316406 277.941406 C 681.746094 278.21875 681.171875 278.519531 680.578125 278.839844 C 680.578125 278.839844 680.574219 278.839844 680.574219 278.847656 C 679.214844 279.589844 677.851562 280.34375 676.476562 281.097656 C 675.941406 281.390625 675.40625 281.683594 674.863281 281.976562 C 674.421875 282.21875 673.972656 282.464844 673.53125 282.707031 C 672.988281 283 672.449219 283.300781 671.902344 283.59375 C 671.453125 283.835938 670.996094 284.082031 670.542969 284.328125 C 670.003906 284.617188 669.46875 284.90625 668.925781 285.199219 C 668.453125 285.453125 667.976562 285.707031 667.5 285.957031 C 666.96875 286.242188 666.433594 286.527344 665.894531 286.808594 C 665.410156 287.0625 664.925781 287.316406 664.445312 287.570312 C 663.902344 287.851562 663.363281 288.140625 662.816406 288.414062 C 662.324219 288.667969 661.832031 288.929688 661.332031 289.179688 C 660.789062 289.457031 660.242188 289.738281 659.691406 290.015625 C 659.351562 290.1875 659.011719 290.359375 658.667969 290.535156 C 661.007812 301.167969 663.839844 314.671875 665.90625 326.601562 C 687.59375 312.769531 699.832031 293.191406 700.085938 276.421875 C 700.011719 276.390625 699.929688 276.347656 699.851562 276.308594 C 699.597656 276.1875 699.339844 276.074219 699.066406 275.964844 Z M 608.371094 309.011719 C 608.371094 309.003906 608.371094 309.003906 608.371094 309.003906 C 607.636719 309.171875 606.90625 309.34375 606.15625 309.503906 C 605.519531 309.644531 604.863281 309.777344 604.210938 309.910156 C 603.382812 310.082031 602.554688 310.253906 601.714844 310.414062 C 601.042969 310.546875 600.351562 310.667969 599.664062 310.789062 C 598.832031 310.945312 597.996094 311.09375 597.144531 311.238281 C 596.445312 311.359375 595.730469 311.46875 595.015625 311.582031 C 594.171875 311.714844 593.324219 311.855469 592.460938 311.980469 C 591.730469 312.089844 590.988281 312.1875 590.25 312.285156 C 589.386719 312.40625 588.519531 312.519531 587.644531 312.628906 C 586.890625 312.722656 586.125 312.808594 585.359375 312.894531 C 584.480469 313 583.59375 313.097656 582.695312 313.1875 C 581.917969 313.261719 581.128906 313.339844 580.34375 313.40625 C 579.4375 313.492188 578.53125 313.574219 577.609375 313.644531 C 576.808594 313.707031 576.003906 313.765625 575.199219 313.820312 C 574.265625 313.886719 573.328125 313.949219 572.382812 314 C 571.5625 314.046875 570.738281 314.085938 569.910156 314.125 C 568.949219 314.171875 567.980469 314.214844 567.003906 314.246094 C 566.714844 314.257812 566.433594 314.269531 566.144531 314.28125 C 571.050781 324.242188 577.71875 335.769531 585.367188 343.640625 C 597.875 344.894531 609.558594 344.574219 620.3125 343.027344 C 616.5625 332.996094 612.066406 319.96875 608.371094 309.011719 Z M 644.988281 411.082031 L 643.824219 411.105469 C 643.070312 411.140625 642.359375 411.234375 641.667969 411.308594 C 640.253906 411.34375 639.007812 411.8125 637.71875 411.878906 L 635.816406 412.050781 C 635.195312 412.089844 634.566406 411.988281 633.957031 412.015625 C 632.742188 412.078125 631.585938 412.03125 630.398438 412.210938 C 628.074219 412.34375 625.5625 412.6875 622.996094 412.257812 C 621.707031 412.0625 620.578125 411.445312 619.390625 410.933594 C 618.824219 410.640625 618.179688 410.449219 617.523438 410.253906 L 616.484375 410.007812 C 616.324219 409.949219 616.066406 410.007812 615.667969 410.207031 L 614.9375 410.632812 C 614.605469 410.851562 614.226562 411.152344 613.839844 411.375 C 613.589844 411.738281 613.339844 412.171875 613.148438 412.515625 L 612.832031 413.316406 C 612.710938 413.78125 612.738281 414.085938 612.867188 414.261719 C 613.089844 414.667969 613.328125 415.066406 613.597656 415.417969 C 614.121094 416.160156 614.753906 416.761719 615.433594 417.304688 C 616.832031 418.332031 618.375 419.121094 619.886719 420.015625 C 622.90625 421.785156 626.359375 423.4375 630.054688 423.726562 C 633.726562 424.140625 637.363281 423.0625 640.539062 421.648438 C 642.183594 421.039062 643.660156 420.140625 645.078125 419.191406 C 645.777344 418.695312 646.375 418.027344 646.972656 417.40625 L 647.824219 416.417969 C 648.140625 416.152344 648.234375 415.457031 647.410156 413.242188 C 645.921875 411.367188 645.34375 411.007812 644.988281 411.082031 Z M 362.175781 291.546875 L 361.027344 290.882812 L 358.800781 289.746094 C 357.351562 289.027344 355.890625 288.605469 354.496094 287.9375 C 351.667969 286.742188 349.210938 284.96875 346.367188 283.984375 C 343.609375 282.824219 340.496094 281.988281 337.660156 280.46875 C 336.234375 279.726562 335.054688 278.660156 333.796875 277.695312 C 333.183594 277.199219 332.480469 276.78125 331.746094 276.390625 C 331.359375 276.199219 330.980469 276.019531 330.578125 275.847656 C 330.398438 275.738281 330.09375 275.746094 329.605469 275.894531 L 328.707031 276.234375 L 327.347656 276.890625 C 327.019531 277.261719 326.664062 277.699219 326.386719 278.058594 L 325.898438 278.898438 C 325.671875 279.386719 325.652344 279.726562 325.753906 279.9375 C 325.914062 280.421875 326.09375 280.902344 326.304688 281.335938 C 326.714844 282.234375 327.246094 283.035156 327.84375 283.761719 C 329.058594 285.210938 330.472656 286.429688 331.734375 287.859375 C 334.269531 290.683594 336.988281 293.617188 340.386719 295.589844 C 342.027344 296.667969 343.867188 297.414062 345.738281 297.996094 C 347.679688 298.421875 349.589844 298.867188 351.539062 299.078125 C 353.46875 299.390625 355.414062 299.539062 357.367188 299.378906 C 358.339844 299.347656 359.324219 299.089844 360.292969 298.832031 L 361.730469 298.382812 C 362.195312 298.308594 362.710938 297.699219 363.238281 295.066406 C 362.910156 292.367188 362.566406 291.683594 362.175781 291.546875 Z M 435.472656 379.449219 L 434.675781 376.382812 C 434.402344 375.371094 434.085938 374.394531 433.726562 373.445312 L 432.820312 370.503906 C 431.628906 366.585938 430.960938 362.554688 429.644531 358.695312 C 428.476562 354.800781 426.882812 350.902344 425.886719 346.824219 C 425.378906 344.785156 425.203125 342.707031 424.933594 340.644531 C 424.800781 339.605469 424.59375 338.570312 424.328125 337.542969 L 423.878906 335.988281 C 423.722656 335.457031 423.21875 334.96875 421.191406 334.347656 C 420.179688 334.570312 419.488281 334.84375 419.109375 335.113281 C 418.675781 335.390625 418.5 335.671875 418.441406 335.953125 C 418.273438 336.515625 418.125 337.082031 418.007812 337.644531 C 417.769531 338.773438 417.667969 339.90625 417.640625 341.027344 C 417.59375 343.285156 417.820312 345.515625 417.796875 347.785156 C 417.808594 352.300781 417.824219 356.933594 418.757812 361.429688 C 419.1875 363.679688 419.808594 365.898438 420.671875 368.035156 C 421.09375 369.105469 421.640625 370.132812 422.117188 371.183594 C 422.585938 372.230469 423.097656 373.257812 423.660156 374.273438 L 425.292969 377.304688 C 425.886719 378.292969 426.53125 379.253906 427.222656 380.1875 C 427.867188 381.136719 428.667969 382 429.5 382.828125 L 430.773438 384.050781 C 431.148438 384.480469 431.878906 384.710938 434.117188 383.949219 C 435.8125 382.253906 435.996094 381.546875 435.832031 381.039062 Z M 455.316406 131.636719 C 455.648438 130.832031 455.839844 129.972656 456.148438 129.15625 C 456.4375 128.332031 456.671875 127.476562 456.933594 126.628906 C 457.179688 125.773438 457.570312 124.984375 457.882812 124.144531 C 458.492188 122.457031 459.378906 120.921875 460.003906 119.171875 L 460.984375 116.519531 L 461.421875 115.109375 C 461.632812 114.683594 461.449219 113.953125 459.890625 111.988281 C 457.738281 110.800781 456.949219 110.832031 456.558594 111.171875 L 455.199219 112.066406 C 454.332031 112.691406 453.417969 113.308594 452.703125 114.089844 C 451.191406 115.597656 449.835938 117.242188 448.675781 119.027344 C 447.414062 120.761719 446.304688 122.59375 445.226562 124.472656 C 444.679688 125.402344 444.3125 126.417969 443.925781 127.417969 C 443.535156 128.425781 443.203125 129.441406 442.976562 130.496094 C 441.839844 134.65625 441.882812 139.042969 441.988281 143.242188 C 442.058594 145.347656 441.941406 147.425781 442.089844 149.515625 C 442.195312 150.5625 442.367188 151.605469 442.714844 152.632812 C 442.867188 153.144531 443.070312 153.65625 443.300781 154.171875 C 443.375 154.421875 443.617188 154.664062 444.089844 154.878906 L 444.964844 155.160156 C 445.371094 155.230469 445.890625 155.292969 446.34375 155.339844 L 447.628906 154.792969 L 448.414062 154.347656 C 448.820312 154.082031 449.015625 153.835938 449.050781 153.605469 L 449.417969 152.230469 C 449.617188 151.320312 449.800781 150.414062 449.859375 149.515625 C 450.050781 147.71875 450.121094 145.90625 450.601562 144.140625 C 451.527344 140.605469 453.101562 137.316406 454.367188 134.070312 C 454.648438 133.246094 455.003906 132.445312 455.316406 131.636719 Z M 852.125 324.628906 C 852.371094 325.460938 852.5625 326.308594 852.785156 327.132812 C 853 327.953125 853.292969 328.71875 853.574219 329.492188 L 854.328125 331.84375 C 854.828125 333.402344 855.164062 335.027344 855.519531 336.625 C 855.6875 337.433594 855.882812 338.21875 856.140625 338.996094 C 856.367188 339.78125 856.597656 340.574219 856.867188 341.351562 C 857.828125 344.5 859.230469 347.65625 860.078125 351.007812 C 860.507812 352.675781 860.613281 354.382812 860.820312 356.089844 C 860.917969 356.941406 861.097656 357.785156 861.339844 358.644531 C 861.46875 359.074219 861.601562 359.496094 861.757812 359.925781 C 861.804688 360.144531 862 360.359375 862.402344 360.59375 L 863.167969 360.957031 L 864.417969 361.371094 C 864.84375 361.289062 865.324219 361.203125 865.707031 361.105469 L 866.511719 360.800781 C 866.929688 360.582031 867.148438 360.351562 867.207031 360.117188 C 867.386719 359.65625 867.558594 359.179688 867.679688 358.710938 C 867.945312 357.773438 868.097656 356.824219 868.144531 355.882812 C 868.261719 353.992188 868.109375 352.117188 868.214844 350.210938 C 868.363281 346.414062 868.546875 342.480469 867.800781 338.644531 C 867.472656 336.722656 866.929688 334.835938 866.144531 333.035156 C 865.796875 332.121094 865.261719 331.261719 864.824219 330.382812 C 864.371094 329.507812 863.945312 328.628906 863.410156 327.789062 L 861.882812 325.261719 C 861.332031 324.445312 860.703125 323.660156 860.050781 322.917969 C 859.425781 322.152344 858.683594 321.46875 857.878906 320.84375 L 856.660156 319.925781 C 856.320312 319.585938 855.582031 319.507812 853.488281 320.507812 C 851.894531 322.25 851.664062 322.914062 851.824219 323.316406 Z M 551.15625 240.195312 C 550.742188 240.597656 550.339844 241.015625 549.941406 241.441406 C 549.597656 241.902344 549.269531 242.378906 548.964844 242.875 C 548.371094 243.863281 547.714844 244.867188 547.449219 245.972656 C 547.117188 247.054688 546.878906 248.164062 546.636719 249.238281 L 546.5 251.074219 L 546.402344 252.410156 C 546.375 252.929688 546.316406 253.457031 546.320312 253.957031 C 546.363281 254.453125 546.402344 254.949219 546.460938 255.441406 C 546.484375 255.621094 546.511719 255.800781 546.539062 255.984375 C 546.636719 256.777344 546.769531 257.570312 546.972656 258.34375 C 547.238281 259.269531 547.738281 260.125 548.191406 260.976562 L 548.964844 262.222656 C 549.128906 262.636719 549.90625 262.988281 552.894531 262.878906 C 555.800781 261.992188 556.488281 261.558594 556.570312 261.191406 L 557.101562 260.085938 C 557.417969 259.371094 557.648438 258.671875 557.882812 258.03125 C 558.183594 257.40625 558.394531 256.804688 558.554688 256.214844 C 558.640625 255.921875 558.710938 255.625 558.773438 255.339844 C 558.871094 255.0625 559.015625 254.820312 559.125 254.566406 L 559.820312 253.117188 C 560.148438 252.726562 560.488281 252.371094 560.726562 251.988281 C 560.914062 251.5625 561.3125 251.339844 561.480469 250.960938 C 561.601562 250.792969 561.65625 250.585938 561.761719 250.402344 C 561.886719 250.242188 562.015625 250.074219 562.125 249.894531 C 562.980469 248.515625 564.09375 246.425781 566.238281 244.945312 C 567.28125 244.199219 568.539062 243.863281 569.804688 243.457031 C 570.4375 243.230469 571.066406 242.960938 571.710938 242.554688 C 572.027344 242.355469 572.347656 242.148438 572.683594 241.910156 C 572.851562 241.828125 572.992188 241.5625 573.15625 241.023438 L 573.410156 239.992188 C 573.488281 239.503906 573.582031 238.886719 573.703125 238.347656 C 573.621094 237.800781 573.519531 237.183594 573.402344 236.6875 L 573.0625 235.675781 C 572.832031 235.148438 572.585938 234.875 572.359375 234.824219 C 571.90625 234.640625 571.445312 234.46875 570.980469 234.339844 C 570.058594 234.117188 569.121094 233.984375 568.207031 234.066406 C 566.363281 234.152344 564.582031 234.644531 562.660156 234.941406 C 561.214844 235.175781 559.671875 235.515625 558.136719 236.019531 C 556.730469 236.488281 555.339844 237.101562 554.023438 237.921875 C 553.003906 238.554688 552.035156 239.289062 551.15625 240.195312 Z M 799.945312 551.722656 L 798.328125 550.894531 C 797.226562 550.382812 796.121094 549.863281 794.964844 549.574219 C 793.804688 549.3125 792.625 549.105469 791.433594 548.960938 C 790.839844 548.875 790.242188 548.808594 789.644531 548.746094 C 789.042969 548.71875 788.433594 548.730469 787.832031 548.722656 C 783.003906 548.460938 777.785156 548.949219 773.238281 551.234375 C 768.597656 553.363281 764.898438 557.101562 761.761719 560.785156 C 760.199219 562.648438 758.550781 564.394531 757.195312 566.378906 C 756.542969 567.390625 755.984375 568.46875 755.617188 569.660156 C 755.421875 570.238281 755.273438 570.867188 755.164062 571.496094 C 755.078125 571.789062 755.121094 572.160156 755.480469 572.707031 C 755.777344 573.203125 756.433594 573.90625 757.535156 574.722656 C 760.230469 575.460938 761.003906 575.480469 761.429688 575.175781 L 762.667969 574.332031 C 763.4375 573.738281 764.195312 573.15625 764.820312 572.488281 C 766.152344 571.222656 767.386719 569.847656 769.003906 568.933594 C 772.207031 567.050781 775.71875 566.144531 778.941406 565.125 C 779.734375 564.84375 780.597656 564.703125 781.390625 564.410156 C 781.792969 564.277344 782.191406 564.117188 782.589844 563.960938 C 783.003906 563.839844 783.417969 563.71875 783.832031 563.570312 C 784.652344 563.304688 785.460938 562.890625 786.3125 562.617188 L 788.933594 561.917969 C 789.378906 561.808594 789.820312 561.675781 790.277344 561.585938 C 790.730469 561.527344 791.195312 561.464844 791.65625 561.382812 C 792.578125 561.246094 793.515625 561.039062 794.464844 560.78125 C 795.421875 560.519531 796.40625 560.367188 797.410156 560.03125 L 798.949219 559.53125 C 799.460938 559.445312 800.023438 558.804688 801.019531 555.796875 C 800.96875 552.671875 800.480469 551.921875 799.945312 551.722656 Z M 506.242188 552.238281 L 504.160156 551.289062 C 502.742188 550.738281 501.332031 550.042969 499.835938 549.753906 C 498.347656 549.425781 496.832031 549.183594 495.308594 548.984375 C 494.542969 548.878906 493.785156 548.765625 493.011719 548.710938 L 490.683594 548.683594 C 484.484375 548.328125 477.890625 549.234375 472.101562 552.039062 C 466.203125 554.675781 461.421875 559.179688 457.386719 563.796875 C 456.835938 564.332031 456.386719 564.957031 455.886719 565.539062 L 454.371094 567.257812 C 453.429688 568.449219 452.425781 569.601562 451.59375 570.878906 C 450.746094 572.144531 450.011719 573.484375 449.464844 574.9375 C 449.167969 575.644531 448.949219 576.410156 448.742188 577.164062 C 448.613281 577.519531 448.613281 577.960938 448.90625 578.5625 C 449.148438 579.109375 449.722656 579.855469 450.71875 580.71875 C 453.351562 581.242188 454.183594 581.070312 454.6875 580.609375 L 456.160156 579.285156 C 457.109375 578.382812 458.042969 577.496094 458.882812 576.546875 L 461.484375 573.785156 C 462.421875 572.945312 463.34375 572.074219 464.371094 571.355469 C 468.523438 568.433594 473.148438 566.636719 477.589844 565.117188 C 478.660156 564.613281 479.847656 564.417969 480.964844 564.042969 C 482.085938 563.691406 483.171875 563.214844 484.339844 562.953125 C 485.492188 562.636719 486.632812 562.230469 487.792969 561.855469 L 491.417969 561.1875 L 493.25 560.855469 C 493.871094 560.785156 494.496094 560.78125 495.125 560.722656 C 496.386719 560.636719 497.644531 560.507812 498.941406 560.296875 C 500.222656 560.089844 501.546875 560.070312 502.886719 559.871094 L 504.929688 559.566406 C 505.609375 559.53125 506.363281 558.984375 507.644531 556.222656 C 507.558594 553.242188 506.9375 552.488281 506.242188 552.238281 Z M 231.859375 132.78125 C 232.992188 131.46875 234.167969 130.1875 235.402344 128.964844 C 238.636719 125.828125 242.226562 123.042969 246.089844 120.695312 C 248.011719 119.5 250.054688 118.527344 252.078125 117.53125 C 254.167969 116.6875 256.234375 115.757812 258.398438 115.148438 C 258.894531 114.972656 259.394531 114.820312 259.894531 114.675781 C 253.074219 105.175781 250.113281 90.40625 248.050781 80.070312 C 247.796875 78.796875 247.5625 77.59375 247.332031 76.480469 C 243.210938 56.648438 231.449219 48.742188 221.648438 49.722656 C 205.070312 51.359375 201.09375 72.210938 201.007812 79.390625 C 200.6875 106.511719 223.128906 126.167969 231.859375 132.78125 Z M 283.984375 186.804688 C 282.917969 185.878906 281.820312 184.9375 280.628906 184.132812 C 279.394531 183.402344 278.199219 182.570312 276.839844 182.023438 C 274.234375 180.714844 271.339844 180 268.429688 179.558594 C 265.5 179.15625 262.5 179.269531 259.613281 179.824219 C 256.6875 180.394531 253.980469 181.320312 251.324219 183.082031 C 250.636719 183.546875 250.273438 184.410156 250.492188 185.265625 C 250.769531 186.34375 251.867188 187 252.949219 186.71875 L 253.226562 186.648438 C 255.445312 186.078125 258.011719 185.582031 260.421875 185.375 C 261.648438 185.285156 262.875 185.203125 264.09375 185.214844 L 265.929688 185.238281 L 267.753906 185.40625 C 268.371094 185.410156 268.96875 185.550781 269.578125 185.628906 C 270.183594 185.714844 270.792969 185.796875 271.390625 185.945312 L 273.210938 186.324219 L 275.003906 186.832031 C 276.230469 187.125 277.386719 187.625 278.609375 188.019531 C 279.816406 188.445312 280.972656 189.019531 282.238281 189.4375 L 282.441406 189.507812 C 283.027344 189.699219 283.707031 189.535156 284.136719 189.042969 C 284.714844 188.378906 284.644531 187.378906 283.984375 186.804688 Z M 383.78125 139.714844 C 383.386719 145.878906 379.074219 151.089844 371.324219 154.792969 C 369.621094 155.601562 367.542969 156.214844 365.34375 156.859375 C 357.324219 159.199219 346.335938 162.40625 342.574219 179.875 C 342.425781 180.554688 342.285156 181.25 342.144531 181.96875 C 341.054688 187.386719 339.824219 193.511719 333.832031 200.527344 C 332.941406 201.386719 331.984375 202.25 331.054688 203.113281 C 330 204.074219 328.925781 205.023438 327.855469 205.953125 C 325.695312 207.824219 323.453125 209.535156 321.265625 211.207031 L 321.183594 211.273438 C 320.527344 211.777344 320.21875 212.652344 320.472656 213.5 C 320.804688 214.582031 321.949219 215.191406 323.03125 214.863281 C 326.097656 213.929688 328.746094 212.382812 331.363281 210.855469 C 332.671875 210.09375 333.9375 209.273438 335.195312 208.445312 C 335.921875 207.972656 336.625 207.484375 337.328125 206.992188 C 340.121094 207.742188 346.402344 209.949219 349.421875 215.109375 C 351.648438 218.917969 351.722656 223.832031 349.648438 229.71875 C 348.863281 231.929688 347.792969 234.011719 346.441406 235.988281 C 345.589844 237.230469 344.628906 238.425781 343.546875 239.578125 C 342.636719 240.550781 341.617188 241.484375 340.542969 242.390625 C 334.378906 247.582031 325.523438 251.730469 313.808594 254.929688 C 309.464844 256.117188 303.886719 256.835938 298.269531 256.824219 C 296.90625 256.816406 295.550781 256.773438 294.195312 256.675781 C 292.792969 256.578125 291.40625 256.421875 290.054688 256.214844 C 284.332031 255.339844 279.242188 253.46875 276.261719 250.21875 C 273.078125 246.753906 272.4375 241.742188 274.316406 235.3125 C 275.398438 235.273438 276.460938 235.203125 277.554688 235.101562 C 279.523438 234.921875 281.484375 234.664062 283.441406 234.328125 C 283.492188 234.324219 283.550781 234.316406 283.601562 234.304688 C 287.601562 233.597656 291.652344 232.601562 295.351562 230.59375 C 295.617188 230.449219 295.824219 230.238281 295.996094 230.003906 C 296.34375 229.542969 296.511719 228.949219 296.371094 228.34375 C 296.125 227.246094 295.03125 226.554688 293.933594 226.808594 L 293.851562 226.824219 C 290.289062 227.636719 286.652344 228.183594 282.933594 228.351562 C 281.078125 228.425781 279.210938 228.429688 277.347656 228.367188 C 275.511719 228.28125 273.574219 228.207031 271.871094 228.003906 L 271.824219 228 C 271.707031 227.988281 271.59375 227.984375 271.476562 227.976562 C 268.042969 227.707031 235.03125 224.148438 223.800781 188.496094 C 223.410156 187.269531 222.410156 186.335938 221.167969 186.027344 C 220.699219 185.910156 174.503906 174.179688 164.296875 138.058594 C 163.097656 133.8125 162.734375 124.074219 167.257812 119.683594 C 168.90625 118.089844 171.179688 117.289062 174.054688 117.289062 C 176.183594 117.289062 178.640625 117.726562 181.421875 118.609375 C 187.359375 120.476562 194.039062 125.742188 201.117188 131.320312 C 207.667969 136.480469 214.976562 142.210938 222.9375 146.207031 C 222.132812 147.824219 221.367188 149.453125 220.679688 151.109375 C 219.847656 153.164062 219.113281 155.246094 218.472656 157.363281 C 217.816406 159.503906 217.289062 161.566406 216.910156 163.914062 C 216.714844 165.125 217.425781 166.328125 218.628906 166.71875 C 219.957031 167.140625 221.378906 166.414062 221.804688 165.085938 L 221.855469 164.925781 C 222.128906 164.078125 222.421875 163.226562 222.726562 162.363281 C 223.761719 159.453125 224.992188 156.484375 226.445312 153.722656 C 227.359375 151.878906 228.34375 150.078125 229.394531 148.324219 C 230.425781 146.609375 231.511719 144.933594 232.671875 143.3125 C 234 141.445312 235.4375 139.667969 236.945312 137.964844 C 240.742188 133.683594 245.082031 129.9375 249.921875 126.976562 C 251.578125 125.882812 253.363281 125 255.117188 124.082031 C 256.941406 123.292969 258.753906 122.464844 260.648438 121.832031 C 262.339844 121.144531 264.125 120.714844 265.882812 120.203125 C 266.050781 120.148438 266.21875 120.105469 266.386719 120.058594 L 269.335938 119.429688 C 270.316406 119.1875 271.3125 119.023438 272.316406 118.890625 C 275.09375 118.46875 277.90625 118.203125 280.742188 118.054688 C 285.269531 117.820312 289.859375 117.917969 294.457031 118.285156 C 295.277344 118.355469 296.105469 118.421875 296.929688 118.503906 C 297.898438 118.601562 298.816406 117.976562 299.054688 117.007812 C 299.3125 115.941406 298.667969 114.871094 297.601562 114.613281 C 291.664062 113.15625 285.507812 112.300781 279.28125 112.214844 C 275.472656 106.148438 264.40625 86.441406 266.875 65.441406 C 267.265625 62.109375 270.144531 45.53125 288.472656 46.527344 C 295.457031 46.90625 305.09375 61.507812 309.203125 87.828125 C 314.066406 118.976562 316.707031 125.597656 318.453125 129.984375 C 318.492188 130.082031 318.519531 130.167969 318.5625 130.265625 C 317.949219 130.851562 317.375 131.46875 316.804688 132.078125 C 316.226562 132.71875 315.679688 133.367188 315.121094 134.019531 L 313.566406 136.042969 C 311.546875 138.777344 309.824219 141.730469 308.421875 144.824219 C 307.671875 146.34375 307.136719 147.960938 306.546875 149.542969 C 306.085938 151.179688 305.527344 152.777344 305.261719 154.457031 C 304.519531 157.761719 304.40625 161.160156 304.519531 164.488281 C 304.550781 165.453125 305.273438 166.289062 306.265625 166.425781 C 307.375 166.582031 308.398438 165.8125 308.554688 164.699219 L 308.578125 164.550781 C 308.996094 161.535156 309.398438 158.5625 310.34375 155.71875 C 310.710938 154.273438 311.308594 152.898438 311.816406 151.503906 C 312.457031 150.160156 313.011719 148.789062 313.785156 147.511719 C 315.21875 144.910156 316.914062 142.453125 318.855469 140.222656 C 319.828125 139.105469 320.832031 138.023438 321.886719 137 C 322.417969 136.5 322.945312 135.992188 323.5 135.527344 C 324 135.089844 324.582031 134.621094 325.007812 134.3125 C 326.460938 133.339844 356.648438 113.648438 378.792969 128.015625 C 381.46875 129.753906 384.128906 134.445312 383.78125 139.714844 Z M 814.535156 433.410156 C 814.273438 432.570312 813.375 432.097656 812.527344 432.367188 C 810.480469 433.011719 808.425781 434.089844 806.847656 435.710938 C 805.242188 437.277344 803.9375 439.195312 803.089844 441.238281 C 802.25 443.285156 801.734375 445.421875 801.582031 447.5625 C 801.433594 449.722656 801.554688 451.765625 802.199219 453.964844 C 802.40625 454.683594 803.011719 455.261719 803.792969 455.402344 C 804.902344 455.601562 805.964844 454.863281 806.164062 453.753906 L 806.210938 453.492188 C 806.503906 451.835938 806.792969 449.988281 807.148438 448.316406 C 807.527344 446.621094 807.960938 444.984375 808.546875 443.433594 C 809.082031 441.859375 809.882812 440.460938 810.75 439.074219 C 811.613281 437.652344 812.804688 436.507812 814.035156 435.144531 L 814.199219 434.964844 C 814.566406 434.554688 814.714844 433.96875 814.535156 433.410156 Z M 794.265625 423.007812 C 794.199219 422.125 793.441406 421.457031 792.554688 421.515625 C 790.3125 421.671875 787.984375 422.179688 785.921875 423.300781 C 784.820312 423.761719 783.90625 424.515625 782.917969 425.171875 C 782.019531 425.941406 781.121094 426.71875 780.355469 427.617188 C 778.808594 429.394531 777.558594 431.40625 776.722656 433.558594 C 775.882812 435.734375 775.371094 437.882812 775.394531 440.363281 C 775.402344 441.128906 775.84375 441.851562 776.582031 442.191406 C 777.605469 442.65625 778.808594 442.210938 779.273438 441.183594 L 779.394531 440.910156 C 780.125 439.308594 780.949219 437.503906 781.824219 435.917969 C 782.71875 434.308594 783.703125 432.792969 784.839844 431.425781 C 785.933594 430.015625 787.210938 428.785156 788.628906 427.671875 C 790.023438 426.5 791.652344 425.628906 793.347656 424.570312 L 793.511719 424.472656 C 794 424.167969 794.304688 423.617188 794.265625 423.007812 Z M 773.082031 415.964844 C 773.9375 415.59375 774.824219 415.285156 775.707031 414.839844 L 775.871094 414.761719 C 776.363281 414.511719 776.714844 414.023438 776.753906 413.4375 C 776.8125 412.550781 776.144531 411.78125 775.257812 411.714844 C 774.210938 411.640625 773.152344 411.636719 772.085938 411.699219 C 771.042969 411.84375 769.964844 411.90625 768.925781 412.199219 C 766.820312 412.648438 764.800781 413.523438 762.875 414.570312 C 761.105469 415.628906 759.46875 416.917969 758.070312 418.460938 C 757.972656 418.5625 757.867188 418.660156 757.773438 418.769531 C 756.308594 420.484375 755.144531 422.269531 754.472656 424.699219 C 754.425781 424.867188 754.402344 425.039062 754.402344 425.210938 C 754.398438 425.726562 754.585938 426.246094 754.976562 426.636719 C 755.75 427.425781 757.015625 427.433594 757.804688 426.65625 L 758.195312 426.273438 C 758.683594 425.792969 759.304688 425.050781 759.902344 424.46875 C 760.515625 423.859375 761.128906 423.253906 761.785156 422.695312 C 763.09375 421.578125 764.457031 420.53125 765.917969 419.601562 C 766.664062 419.15625 767.390625 418.671875 768.183594 418.289062 C 768.945312 417.832031 769.761719 417.480469 770.574219 417.078125 C 771.371094 416.664062 772.242188 416.367188 773.082031 415.964844 Z M 869.007812 435.644531 C 868.777344 435.109375 868.535156 434.578125 868.289062 434.0625 C 867.3125 432 866.210938 430.039062 865.050781 428.128906 C 863.871094 426.230469 862.628906 424.382812 861.285156 422.621094 C 859.945312 420.859375 858.507812 419.179688 856.964844 417.609375 C 856.324219 416.964844 855.3125 416.796875 854.488281 417.273438 C 853.511719 417.839844 853.179688 419.085938 853.742188 420.058594 L 853.765625 420.105469 C 854.816406 421.929688 855.917969 423.695312 856.917969 425.507812 C 857.949219 427.304688 858.910156 429.128906 859.773438 430.980469 C 860.628906 432.839844 861.40625 434.722656 862.050781 436.617188 C 862.367188 437.566406 862.671875 438.515625 862.933594 439.453125 C 863.070312 439.925781 863.179688 440.390625 863.289062 440.851562 C 863.378906 441.257812 863.484375 441.777344 863.519531 442.035156 C 863.519531 442.035156 863.511719 442.042969 863.519531 442.046875 C 863.675781 443.003906 867.183594 465.484375 846.417969 472.957031 C 844.769531 473.425781 843.125 473.875 841.484375 474.375 L 836.167969 475.96875 C 832.628906 477.035156 829.066406 478.03125 825.585938 479.367188 C 824.757812 479.6875 824.203125 480.523438 824.28125 481.449219 C 824.367188 482.578125 825.355469 483.417969 826.484375 483.324219 C 830.199219 483.027344 833.84375 482.382812 837.496094 481.816406 L 842.980469 480.949219 C 843.734375 480.839844 844.484375 480.707031 845.238281 480.578125 C 846.480469 484.585938 848.085938 492.5625 844.039062 499.484375 C 839.375 507.476562 828.515625 512.199219 811.773438 513.53125 C 802.1875 514.289062 790.707031 513.363281 786.933594 499.378906 C 786.421875 497.382812 786.023438 495.046875 785.65625 492.832031 C 785.289062 490.535156 784.992188 488.214844 784.785156 485.886719 C 784.585938 483.550781 784.429688 481.207031 784.371094 478.859375 C 784.269531 476.503906 784.261719 474.152344 784.1875 471.777344 L 784.1875 471.734375 C 784.160156 470.808594 783.492188 469.992188 782.546875 469.800781 C 781.441406 469.582031 780.367188 470.296875 780.148438 471.402344 C 779.1875 476.234375 778.863281 481.171875 778.789062 486.109375 C 778.761719 488.585938 778.820312 491.066406 778.953125 493.550781 C 779.039062 495.082031 779.164062 496.570312 779.347656 498.097656 C 776.453125 499.207031 771.164062 500.605469 766.148438 498.632812 C 761.1875 496.679688 757.390625 491.777344 754.851562 484.074219 C 754.59375 482.082031 754.390625 480.003906 754.167969 477.957031 C 753.9375 475.730469 753.730469 473.484375 753.558594 471.246094 C 753.207031 466.761719 753.050781 462.273438 752.683594 457.757812 L 752.683594 457.746094 C 752.609375 456.824219 751.90625 456.042969 750.957031 455.898438 C 749.839844 455.726562 748.796875 456.492188 748.632812 457.609375 C 747.933594 462.175781 747.714844 466.773438 747.566406 471.378906 C 747.484375 473.675781 747.445312 475.980469 747.433594 478.289062 C 747.429688 478.714844 747.441406 479.136719 747.445312 479.5625 C 743.105469 477.5 736.78125 473.410156 733.179688 465.976562 C 731.574219 462.671875 730.644531 459.007812 730.355469 455 C 730.246094 453.4375 730.230469 451.820312 730.320312 450.15625 C 730.417969 448.316406 730.644531 446.410156 730.984375 444.441406 C 731.984375 438.671875 734.015625 432.367188 737.117188 425.554688 C 741.679688 415.519531 748.316406 408.003906 757.074219 402.882812 C 763.433594 399.164062 770.925781 396.730469 779.597656 395.558594 C 782.359375 395.183594 785.234375 394.941406 788.238281 394.820312 C 791.046875 394.710938 793.9375 394.675781 796.964844 394.792969 C 796.96875 394.792969 796.96875 394.792969 796.96875 394.792969 C 798.789062 394.851562 800.859375 395.101562 802.796875 395.355469 C 804.804688 395.644531 806.808594 396.019531 808.757812 396.523438 C 810.703125 397.042969 812.597656 397.6875 814.417969 398.464844 C 816.210938 399.265625 817.902344 400.195312 819.507812 401.289062 L 819.613281 401.363281 C 820.359375 401.871094 821.378906 401.835938 822.09375 401.214844 C 822.945312 400.476562 823.03125 399.195312 822.292969 398.34375 C 820.722656 396.535156 818.828125 395.070312 816.851562 393.832031 C 814.847656 392.632812 812.753906 391.671875 810.625 390.828125 C 808.496094 390.003906 806.324219 389.324219 804.132812 388.75 C 803.070312 388.472656 802.027344 388.234375 800.960938 388.023438 C 801.046875 387.304688 801.167969 386.496094 801.34375 385.609375 C 801.734375 383.605469 802.402344 381.265625 803.539062 378.933594 C 804.792969 376.359375 806.613281 373.816406 809.273438 371.820312 C 810.453125 370.933594 811.761719 370.191406 813.179688 369.578125 C 815.117188 368.738281 817.265625 368.148438 819.628906 367.828125 C 820.5 367.710938 821.394531 367.636719 822.324219 367.589844 C 823.519531 367.527344 824.761719 367.523438 826.050781 367.578125 C 827.238281 367.632812 828.460938 367.734375 829.730469 367.890625 C 833.957031 368.402344 838.621094 369.46875 843.710938 371.101562 C 850.640625 373.324219 861.453125 378.933594 870.316406 386.402344 C 871.757812 387.621094 873.152344 388.894531 874.46875 390.207031 C 875.429688 391.160156 876.34375 392.140625 877.207031 393.140625 C 881.339844 397.90625 884.316406 403.136719 885.046875 408.546875 C 886.300781 417.804688 880.890625 426.902344 869.007812 435.644531 Z M 643.359375 200.699219 L 663.769531 205.441406 L 643.515625 210.824219 C 645.320312 225.921875 654.003906 237.34375 664.257812 237.191406 C 675.636719 237.011719 684.636719 222.660156 684.367188 205.125 C 684.09375 187.597656 674.652344 173.527344 663.277344 173.699219 C 653.019531 173.863281 644.695312 185.550781 643.359375 200.699219 Z M 634.847656 236.367188 C 627.65625 227.699219 623.582031 216.058594 623.390625 203.59375 C 623.195312 191.132812 626.90625 179.367188 633.828125 170.484375 C 640.644531 161.738281 649.757812 156.839844 659.507812 156.691406 C 659.660156 156.683594 659.816406 156.683594 659.964844 156.683594 C 680.074219 156.683594 696.667969 177.097656 697.058594 202.457031 C 697.253906 214.917969 693.550781 226.675781 686.621094 235.566406 C 679.808594 244.3125 670.6875 249.210938 660.945312 249.359375 C 651.265625 249.542969 641.933594 244.902344 634.847656 236.367188 Z M 536.550781 257.796875 C 533.242188 259.4375 529.667969 260.363281 525.933594 260.421875 C 517.503906 260.5625 509.453125 256.277344 503.289062 248.382812 C 496.984375 240.308594 493.410156 229.46875 493.230469 217.855469 C 493.046875 206.238281 496.289062 195.285156 502.339844 187.023438 C 508.257812 178.941406 516.164062 174.421875 524.597656 174.289062 C 524.726562 174.289062 524.847656 174.289062 524.972656 174.289062 C 542.472656 174.289062 556.9375 193.28125 557.300781 216.859375 C 557.351562 220.042969 557.132812 223.148438 556.691406 226.148438 C 556.457031 226.203125 556.21875 226.25 555.984375 226.3125 C 552.46875 227.285156 549.367188 228.777344 546.703125 230.691406 C 547.214844 227.839844 547.472656 224.800781 547.425781 221.648438 C 547.171875 205.296875 538.875 192.171875 528.898438 192.328125 C 519.902344 192.464844 512.613281 203.351562 511.449219 217.480469 L 529.359375 221.929688 L 511.59375 226.921875 C 513.195312 241.011719 520.820312 251.667969 529.816406 251.53125 C 532.050781 251.496094 534.167969 250.765625 536.125 249.519531 C 536.066406 250.015625 536.011719 250.503906 535.976562 251.007812 C 535.816406 253.324219 536.023438 255.605469 536.550781 257.796875 " fill-opacity="1" fill-rule="nonzero"/><path fill="#030f3d" d="M 853.730469 614.496094 C 828.375 627.527344 778.335938 627.433594 776.136719 627.417969 C 775.015625 627.433594 773.894531 627.4375 772.78125 627.4375 C 722.113281 627.4375 678.8125 611.222656 667.332031 606.527344 C 666.007812 608.65625 664.292969 612.878906 668.207031 616.734375 C 679.921875 628.296875 715.714844 639.246094 755.242188 643.363281 C 798.90625 647.902344 835.21875 643.472656 852.371094 631.484375 C 856.054688 628.914062 857.972656 626.179688 858.082031 623.355469 C 858.21875 619.578125 855.308594 616.101562 853.730469 614.496094 Z M 759.886719 569.847656 C 760.121094 570.234375 760.636719 570.785156 761.5 571.425781 C 763.605469 572 764.214844 572.023438 764.546875 571.78125 L 765.515625 571.113281 C 766.117188 570.652344 766.710938 570.199219 767.199219 569.675781 C 768.242188 568.679688 769.210938 567.609375 770.476562 566.890625 C 772.984375 565.417969 775.730469 564.703125 778.253906 563.910156 C 778.875 563.691406 779.550781 563.582031 780.171875 563.351562 C 780.488281 563.253906 780.796875 563.121094 781.109375 563 C 781.4375 562.910156 781.757812 562.8125 782.082031 562.695312 C 782.726562 562.488281 783.355469 562.167969 784.019531 561.949219 L 786.082031 561.402344 C 786.425781 561.316406 786.773438 561.210938 787.128906 561.140625 C 787.484375 561.097656 787.847656 561.042969 788.210938 560.980469 C 788.933594 560.871094 789.667969 560.710938 790.410156 560.507812 C 791.15625 560.308594 791.929688 560.179688 792.714844 559.921875 L 793.917969 559.535156 C 794.320312 559.460938 794.757812 558.96875 795.542969 556.609375 C 795.5 554.160156 795.117188 553.574219 794.695312 553.417969 L 793.429688 552.769531 C 792.574219 552.371094 791.703125 551.964844 790.800781 551.738281 C 789.890625 551.53125 788.964844 551.371094 788.039062 551.257812 C 787.570312 551.191406 787.105469 551.140625 786.632812 551.09375 C 786.160156 551.066406 785.691406 551.078125 785.210938 551.070312 C 781.433594 550.863281 777.351562 551.246094 773.789062 553.035156 C 770.160156 554.703125 767.265625 557.632812 764.808594 560.515625 C 763.582031 561.972656 762.292969 563.335938 761.226562 564.886719 C 760.722656 565.6875 760.285156 566.527344 759.996094 567.460938 C 759.839844 567.914062 759.726562 568.402344 759.640625 568.898438 C 759.570312 569.125 759.609375 569.421875 759.886719 569.847656 Z M 689.292969 574.761719 C 689.285156 573.636719 688.359375 572.726562 687.238281 572.738281 L 687.171875 572.738281 C 683.535156 572.765625 679.898438 572.046875 676.476562 570.683594 C 674.761719 570 673.109375 569.164062 671.554688 568.203125 C 670.125 567.292969 668.742188 566.320312 667.539062 565.25 C 660.886719 557.789062 658.0625 551.226562 659.144531 545.75 C 660.242188 540.179688 665.335938 536.117188 670.027344 533.332031 C 671.226562 532.617188 672.402344 531.988281 673.476562 531.445312 L 677.300781 544.742188 C 676.132812 544.582031 674.96875 544.398438 673.824219 544.195312 C 673.425781 544.125 673.023438 544.070312 672.625 543.992188 L 672.496094 543.964844 C 671.574219 543.792969 670.625 544.28125 670.25 545.179688 C 669.824219 546.210938 670.308594 547.390625 671.34375 547.820312 C 675.566406 549.582031 679.832031 550.535156 684.261719 551.09375 C 688.675781 551.636719 693.1875 551.605469 697.660156 551.027344 C 702.125 550.445312 706.53125 549.046875 710.601562 547.042969 C 711.59375 546.492188 712.597656 545.957031 713.574219 545.386719 C 714.523438 544.765625 715.421875 544.050781 716.332031 543.382812 L 717.667969 542.347656 L 718.871094 541.15625 C 719.664062 540.355469 720.441406 539.539062 721.195312 538.730469 C 721.671875 538.210938 721.757812 537.417969 721.359375 536.800781 C 720.980469 536.21875 720.289062 535.988281 719.65625 536.152344 C 719.492188 536.191406 719.328125 536.242188 719.179688 536.339844 L 718.996094 536.460938 C 718.128906 537.023438 717.28125 537.59375 716.453125 538.175781 L 716.019531 538.476562 L 711.394531 523.679688 C 713.015625 523.785156 714.554688 523.941406 715.996094 524.160156 C 723.488281 525.292969 728.652344 528.003906 731.375 532.265625 C 736.21875 539.839844 732.097656 550.363281 732.058594 550.457031 C 732.058594 550.460938 732.058594 550.460938 732.058594 550.460938 C 731.835938 551.078125 731.429688 551.96875 731.050781 552.71875 C 730.644531 553.511719 730.199219 554.292969 729.746094 555.082031 C 728.824219 556.636719 727.761719 558.117188 726.589844 559.496094 C 725.433594 560.894531 724.128906 562.167969 722.730469 563.316406 C 721.359375 564.53125 719.824219 565.492188 718.277344 566.535156 L 718.132812 566.632812 C 717.394531 567.121094 717.050781 568.058594 717.332031 568.9375 C 717.679688 570.011719 718.824219 570.597656 719.894531 570.25 C 721.925781 569.601562 723.933594 568.75 725.757812 567.59375 C 727.597656 566.472656 729.320312 565.136719 730.894531 563.675781 C 732.484375 562.210938 733.964844 560.625 735.292969 558.914062 C 735.953125 558.0625 736.585938 557.183594 737.175781 556.257812 C 737.1875 556.238281 737.195312 556.222656 737.207031 556.203125 L 745.265625 558.597656 C 745.21875 558.660156 745.171875 558.726562 745.125 558.792969 C 744.035156 560.40625 742.996094 562.050781 742.070312 563.753906 C 740.21875 567.148438 738.589844 570.652344 737.339844 574.296875 C 736.105469 577.929688 735.027344 581.617188 734.410156 585.390625 C 733.710938 589.144531 733.46875 592.964844 733.445312 596.746094 C 733.441406 597.734375 734.160156 598.609375 735.164062 598.765625 C 736.269531 598.9375 737.304688 598.179688 737.480469 597.074219 L 737.496094 596.976562 C 738.050781 593.429688 738.585938 589.914062 739.535156 586.492188 C 740.363281 583.050781 741.566406 579.71875 742.921875 576.476562 C 744.285156 573.230469 745.988281 570.148438 747.867188 567.207031 C 748.796875 565.738281 749.816406 564.332031 750.851562 562.949219 C 751.386719 562.28125 751.910156 561.589844 752.46875 560.964844 C 753 560.332031 753.632812 559.65625 754.085938 559.207031 L 754.195312 559.105469 C 754.234375 559.066406 754.277344 559.023438 754.316406 558.976562 C 754.328125 558.96875 754.335938 558.957031 754.339844 558.945312 C 765.957031 546.203125 781.738281 539.40625 795.582031 541.214844 C 830.230469 545.738281 848.972656 568.863281 851.332031 609.941406 C 827.117188 622.363281 776.683594 622.28125 776.113281 622.261719 C 724.152344 623.003906 679.382812 605.929688 668.824219 601.566406 C 668.648438 601.117188 668.390625 600.703125 668.039062 600.339844 C 667.976562 600.277344 662.054688 594.074219 662.882812 584.636719 C 663.257812 580.378906 664.984375 576 666.347656 573.105469 C 668.988281 574.5625 671.761719 575.621094 674.628906 576.390625 C 676.757812 576.945312 678.945312 577.324219 681.167969 577.433594 C 683.382812 577.53125 685.648438 577.363281 687.8125 576.742188 C 688.671875 576.5 689.304688 575.699219 689.292969 574.761719 Z M 452.363281 574.769531 C 452.566406 575.222656 453.042969 575.851562 453.871094 576.5625 C 456.050781 576.996094 456.738281 576.851562 457.15625 576.472656 L 458.382812 575.371094 C 459.164062 574.625 459.9375 573.894531 460.632812 573.105469 L 462.785156 570.816406 C 463.566406 570.117188 464.328125 569.398438 465.183594 568.800781 C 468.621094 566.382812 472.453125 564.894531 476.136719 563.640625 C 477.019531 563.214844 478.003906 563.050781 478.925781 562.742188 C 479.859375 562.453125 480.761719 562.058594 481.726562 561.84375 C 482.679688 561.578125 483.628906 561.238281 484.589844 560.933594 L 487.59375 560.375 L 489.113281 560.101562 C 489.625 560.042969 490.140625 560.039062 490.664062 559.992188 C 491.707031 559.921875 492.753906 559.820312 493.824219 559.640625 C 494.890625 559.46875 495.980469 559.457031 497.09375 559.289062 L 498.789062 559.03125 C 499.347656 559 499.976562 558.550781 501.039062 556.261719 C 500.964844 553.792969 500.453125 553.167969 499.871094 552.964844 L 498.144531 552.175781 C 496.976562 551.722656 495.808594 551.140625 494.566406 550.90625 C 493.335938 550.632812 492.074219 550.433594 490.816406 550.261719 C 490.183594 550.179688 489.546875 550.082031 488.914062 550.042969 L 486.980469 550.019531 C 481.84375 549.71875 476.382812 550.480469 471.589844 552.792969 C 466.699219 554.980469 462.738281 558.714844 459.394531 562.535156 C 458.933594 562.976562 458.5625 563.5 458.148438 563.984375 L 456.890625 565.40625 C 456.109375 566.394531 455.285156 567.351562 454.589844 568.402344 C 453.894531 569.457031 453.277344 570.566406 452.828125 571.769531 C 452.582031 572.351562 452.402344 572.992188 452.230469 573.613281 C 452.121094 573.90625 452.121094 574.28125 452.363281 574.769531 Z M 430.199219 612.597656 C 427.949219 581.839844 442.277344 544.933594 490.234375 540.75 C 491.394531 540.644531 492.824219 540.570312 494.457031 540.570312 C 503.769531 540.570312 519.738281 543.125 531.476562 558.464844 C 532.367188 559.722656 533.328125 561.246094 534.210938 562.695312 C 535.105469 564.214844 536 565.757812 536.84375 567.328125 C 538.535156 570.464844 540.113281 573.679688 541.550781 576.96875 C 542.960938 580.265625 544.308594 583.601562 545.46875 587.007812 C 546.695312 590.390625 547.738281 593.84375 548.832031 597.304688 L 548.84375 597.347656 C 549.140625 598.292969 550.097656 598.902344 551.105469 598.742188 C 552.207031 598.570312 552.960938 597.527344 552.789062 596.417969 C 552.203125 592.738281 551.449219 589.074219 550.476562 585.464844 C 549.542969 581.847656 548.359375 578.296875 547.121094 574.75 C 545.863281 571.222656 544.433594 567.75 542.875 564.3125 C 542.097656 562.59375 541.253906 560.902344 540.367188 559.226562 C 540.234375 558.972656 540.101562 558.726562 539.964844 558.476562 L 542.910156 557.609375 C 543.058594 557.757812 543.199219 557.914062 543.347656 558.0625 C 544.128906 558.816406 544.945312 559.53125 545.808594 560.175781 C 547.519531 561.476562 549.332031 562.617188 551.246094 563.519531 C 553.164062 564.417969 555.132812 565.199219 557.167969 565.675781 C 559.195312 566.199219 561.273438 566.425781 563.320312 566.464844 C 564.203125 566.476562 565.023438 565.917969 565.300781 565.039062 C 565.640625 563.960938 565.042969 562.816406 563.964844 562.484375 L 563.832031 562.4375 C 562.09375 561.894531 560.390625 561.414062 558.78125 560.691406 C 557.152344 560.058594 555.621094 559.214844 554.175781 558.289062 C 552.726562 557.363281 551.410156 556.25 550.199219 555.066406 C 549.601562 554.472656 549.042969 553.84375 548.503906 553.21875 C 548.25 552.902344 547.980469 552.585938 547.761719 552.261719 C 547.605469 552.0625 547.4375 551.820312 547.324219 551.628906 C 547.265625 551.527344 541.710938 541.316406 545.457031 533.308594 C 546.472656 531.148438 548.132812 529.3125 550.367188 527.773438 C 552.261719 526.464844 554.589844 525.390625 557.347656 524.53125 L 559.199219 538.09375 C 558.199219 537.648438 557.226562 537.167969 556.304688 536.695312 L 556.140625 536.609375 C 555.5 536.28125 554.695312 536.421875 554.21875 536.996094 C 553.964844 537.296875 553.859375 537.660156 553.859375 538.027344 C 553.867188 538.46875 554.039062 538.90625 554.402344 539.21875 C 558.097656 542.332031 562.210938 544.527344 566.703125 546.03125 C 571.167969 547.542969 575.945312 548.304688 580.710938 548.15625 C 585.457031 547.957031 590.25 547.195312 594.621094 545.347656 C 596.878906 544.625 598.890625 543.367188 600.972656 542.308594 C 602.019531 541.777344 602.910156 541.007812 603.882812 540.367188 C 604.839844 539.707031 605.777344 539.023438 606.691406 538.324219 C 607.128906 537.996094 607.375 537.503906 607.445312 536.972656 C 607.492188 536.621094 607.46875 536.253906 607.320312 535.910156 C 606.871094 534.890625 605.679688 534.429688 604.660156 534.878906 L 604.417969 534.988281 C 603.5625 535.367188 602.734375 535.792969 601.914062 536.226562 L 599.136719 521.988281 C 601.128906 522.632812 603.308594 523.558594 605.425781 524.78125 C 609.308594 527.011719 612.957031 530.222656 614.71875 534.4375 C 617.46875 541.007812 615.105469 548.910156 607.699219 557.90625 C 606.484375 559.078125 605.039062 560.117188 603.492188 561.066406 C 601.835938 562.070312 600.035156 562.925781 598.164062 563.644531 C 594.40625 565.082031 590.382812 565.914062 586.296875 566.449219 L 586.265625 566.453125 C 585.355469 566.570312 584.613281 567.292969 584.496094 568.238281 C 584.371094 569.359375 585.171875 570.371094 586.292969 570.503906 C 590.851562 571.027344 595.464844 570.5 599.960938 569.367188 C 603.382812 568.472656 606.8125 567.214844 610 565.214844 C 613.546875 569.285156 620.492188 579.972656 617.394531 598.925781 C 617.355469 599.171875 617.378906 599.421875 617.390625 599.664062 C 601.644531 613.980469 512.53125 643.050781 430.199219 612.597656 Z M 624.503906 610.726562 C 624.679688 613.753906 622.722656 616.972656 618.691406 620.296875 C 601.753906 634.242188 568.367188 644.792969 529.382812 648.523438 C 490.773438 652.210938 454.835938 648.585938 433.242188 638.828125 C 427.113281 636.054688 423.710938 632.78125 423.128906 629.101562 C 422.421875 624.574219 426.078125 619.660156 428.265625 617.375 C 455.464844 627.46875 483.097656 631.292969 508.710938 631.292969 C 562.695312 631.292969 607.636719 614.382812 620.445312 603.726562 C 622 605.101562 624.316406 607.636719 624.503906 610.726562 " fill-opacity="1" fill-rule="nonzero"/><path fill="#030f3d" d="M 649.304688 388.226562 C 641.453125 390.242188 620.230469 392.339844 617.964844 379.957031 C 616.503906 371.976562 621.191406 364.363281 648.027344 367.71875 C 648.027344 367.71875 674.082031 338.6875 681.277344 354.488281 C 686.09375 365.066406 670.726562 382.726562 649.304688 388.226562 Z M 568.707031 241.441406 L 568.535156 242.160156 C 568.414062 242.542969 568.316406 242.726562 568.195312 242.78125 C 567.964844 242.957031 567.738281 243.097656 567.515625 243.238281 C 567.0625 243.523438 566.617188 243.714844 566.175781 243.875 C 565.289062 244.164062 564.402344 244.394531 563.664062 244.917969 C 562.164062 245.960938 561.382812 247.425781 560.777344 248.394531 C 560.703125 248.519531 560.609375 248.640625 560.523438 248.757812 C 560.449219 248.882812 560.410156 249.027344 560.328125 249.148438 C 560.207031 249.410156 559.929688 249.566406 559.800781 249.867188 C 559.632812 250.136719 559.390625 250.382812 559.160156 250.660156 L 558.671875 251.679688 C 558.597656 251.859375 558.492188 252.023438 558.429688 252.21875 C 558.382812 252.421875 558.332031 252.628906 558.273438 252.835938 C 558.160156 253.25 558.007812 253.671875 557.800781 254.113281 C 557.636719 254.5625 557.472656 255.058594 557.25 255.558594 L 556.882812 256.335938 C 556.824219 256.59375 556.335938 256.898438 554.296875 257.519531 C 552.199219 257.59375 551.652344 257.347656 551.535156 257.054688 L 550.988281 256.183594 C 550.671875 255.585938 550.316406 254.980469 550.132812 254.332031 C 549.992188 253.792969 549.902344 253.234375 549.828125 252.675781 C 549.808594 252.546875 549.792969 252.421875 549.773438 252.296875 C 549.734375 251.949219 549.699219 251.597656 549.675781 251.253906 C 549.671875 250.898438 549.710938 250.527344 549.734375 250.164062 L 549.804688 249.226562 L 549.894531 247.933594 C 550.066406 247.179688 550.234375 246.402344 550.472656 245.636719 C 550.65625 244.867188 551.117188 244.160156 551.53125 243.46875 C 551.742188 243.117188 551.980469 242.78125 552.21875 242.453125 C 552.503906 242.160156 552.777344 241.863281 553.070312 241.582031 C 553.6875 240.949219 554.371094 240.421875 555.085938 239.980469 C 556.011719 239.410156 556.992188 238.972656 557.976562 238.644531 C 559.058594 238.292969 560.136719 238.058594 561.152344 237.886719 C 562.503906 237.679688 563.757812 237.332031 565.054688 237.269531 C 565.699219 237.21875 566.359375 237.308594 567.003906 237.464844 C 567.324219 237.558594 567.652344 237.679688 567.96875 237.8125 C 568.132812 237.84375 568.304688 238.035156 568.464844 238.402344 L 568.699219 239.117188 C 568.78125 239.460938 568.855469 239.894531 568.914062 240.28125 C 568.832031 240.664062 568.765625 241.097656 568.707031 241.441406 Z M 582.5 236.867188 C 578.617188 231.3125 569.410156 228.519531 560.511719 229.871094 C 559.730469 229.984375 558.953125 230.144531 558.175781 230.332031 C 557.84375 230.410156 557.503906 230.480469 557.167969 230.570312 C 556.679688 230.710938 556.207031 230.867188 555.742188 231.019531 C 550.304688 232.851562 546.132812 236.195312 543.503906 240.707031 C 543.3125 241.089844 543.105469 241.460938 542.902344 241.828125 C 541.492188 244.617188 540.625 247.796875 540.382812 251.3125 C 540.292969 252.691406 540.347656 254.050781 540.554688 255.375 C 540.675781 256.167969 540.855469 256.9375 541.078125 257.703125 C 541.292969 258.421875 541.550781 259.125 541.851562 259.816406 C 543.589844 263.792969 546.765625 267.210938 551.128906 269.5625 C 559.230469 273.953125 572.832031 274.921875 586.671875 264.464844 C 586.996094 264.21875 587.367188 264.085938 587.742188 264.039062 L 598.308594 249.367188 L 584.578125 237.789062 C 583.789062 237.886719 582.984375 237.5625 582.5 236.867188 " fill-opacity="1" fill-rule="nonzero"/><path fill="#f08c2b" d="M 866.890625 348.105469 C 866.808594 349.601562 866.925781 351.0625 866.839844 352.550781 C 866.804688 353.285156 866.683594 354.027344 866.476562 354.757812 C 866.378906 355.128906 866.242188 355.496094 866.101562 355.863281 C 866.054688 356.042969 865.890625 356.226562 865.554688 356.398438 L 864.929688 356.632812 C 864.628906 356.710938 864.253906 356.777344 863.921875 356.84375 L 862.945312 356.519531 L 862.339844 356.230469 C 862.027344 356.054688 861.875 355.882812 861.839844 355.714844 C 861.710938 355.375 861.613281 355.046875 861.511719 354.707031 C 861.320312 354.039062 861.183594 353.371094 861.101562 352.703125 C 860.941406 351.375 860.859375 350.035156 860.527344 348.726562 C 859.859375 346.109375 858.761719 343.636719 858.011719 341.171875 C 857.800781 340.5625 857.621094 339.945312 857.441406 339.332031 C 857.242188 338.726562 857.089844 338.105469 856.957031 337.472656 C 856.675781 336.222656 856.417969 334.953125 856.027344 333.730469 L 855.433594 331.890625 C 855.214844 331.285156 854.984375 330.6875 854.8125 330.042969 C 854.640625 329.398438 854.488281 328.738281 854.300781 328.082031 L 854.0625 327.058594 C 853.9375 326.746094 854.121094 326.222656 855.363281 324.859375 C 857.003906 324.074219 857.582031 324.132812 857.851562 324.402344 L 858.800781 325.117188 C 859.433594 325.613281 860.015625 326.148438 860.503906 326.746094 C 861.015625 327.328125 861.503906 327.941406 861.9375 328.582031 L 863.132812 330.5625 C 863.554688 331.210938 863.882812 331.902344 864.238281 332.585938 C 864.582031 333.277344 865.003906 333.945312 865.269531 334.664062 C 865.890625 336.074219 866.308594 337.554688 866.570312 339.054688 C 867.15625 342.054688 867.007812 345.136719 866.890625 348.105469 Z M 792.238281 346.996094 C 784.769531 360.253906 773.910156 353.039062 771.296875 348.488281 C 760.679688 329.96875 774.09375 324.824219 780.425781 324.859375 C 796.324219 324.945312 795.316406 341.535156 792.238281 346.996094 Z M 739.429688 238.0625 C 733.800781 208.714844 754.863281 213.234375 761.378906 217.125 C 784.296875 230.808594 780.195312 248.222656 772.167969 253.070312 C 754.070312 264.003906 741.121094 246.910156 739.429688 238.0625 Z M 769.929688 134.824219 C 776.160156 136.964844 775.578125 142.757812 774.769531 145.597656 C 771.9375 155.546875 763.707031 153.167969 761.835938 150.285156 C 752.945312 136.5625 765.800781 133.414062 769.929688 134.824219 Z M 717.089844 433.972656 C 699.765625 445.246094 688.589844 428.546875 687.707031 420.515625 C 685.132812 396.800781 706.164062 400.300781 713.617188 402.761719 C 733.101562 409.214844 723.675781 429.691406 717.089844 433.972656 Z M 603.394531 421.019531 C 602.492188 419.921875 602.652344 418.292969 603.75 417.390625 C 604.851562 416.488281 606.472656 416.640625 607.375 417.742188 C 608.121094 418.632812 625.855469 439.40625 654.875 423.238281 C 656.121094 422.539062 657.6875 422.988281 658.382812 424.230469 C 659.074219 425.476562 658.632812 427.046875 657.390625 427.738281 C 648.53125 432.667969 640.546875 434.480469 633.601562 434.480469 C 614.753906 434.480469 603.550781 421.207031 603.394531 421.019531 Z M 643.738281 416.527344 L 643.089844 417.292969 C 642.628906 417.765625 642.175781 418.277344 641.640625 418.652344 C 640.546875 419.382812 639.417969 420.066406 638.164062 420.53125 C 635.734375 421.621094 632.949219 422.441406 630.136719 422.125 C 627.308594 421.902344 624.667969 420.640625 622.355469 419.285156 C 621.191406 418.597656 620.019531 417.996094 618.949219 417.207031 C 618.425781 416.796875 617.941406 416.332031 617.539062 415.765625 C 617.335938 415.496094 617.152344 415.191406 616.980469 414.882812 C 616.882812 414.742188 616.859375 414.511719 616.957031 414.160156 L 617.195312 413.546875 C 617.34375 413.28125 617.539062 412.949219 617.730469 412.675781 C 618.015625 412.5 618.316406 412.273438 618.570312 412.101562 L 619.128906 411.78125 C 619.433594 411.625 619.628906 411.578125 619.75 411.628906 L 620.542969 411.8125 C 621.050781 411.964844 621.539062 412.109375 621.976562 412.332031 C 622.878906 412.722656 623.75 413.199219 624.730469 413.34375 C 626.699219 413.679688 628.621094 413.414062 630.398438 413.308594 C 631.308594 413.179688 632.191406 413.210938 633.121094 413.160156 C 633.589844 413.144531 634.066406 413.21875 634.550781 413.191406 L 636 413.058594 C 636.988281 413.003906 637.945312 412.648438 639.027344 412.621094 C 639.554688 412.566406 640.101562 412.492188 640.679688 412.46875 L 641.5625 412.445312 C 641.839844 412.390625 642.277344 412.660156 643.421875 414.097656 C 644.050781 415.796875 643.980469 416.324219 643.738281 416.527344 Z M 536.46875 354.34375 C 528.113281 339.867188 526.203125 325.894531 531.367188 316.957031 C 534.570312 311.40625 540.25 308.34375 547.351562 308.34375 C 547.644531 308.34375 547.945312 308.347656 548.242188 308.359375 C 551.453125 308.46875 554.667969 308.527344 557.796875 308.527344 C 614.351562 308.527344 647.300781 290.414062 676.367188 274.433594 L 677.738281 273.679688 C 683.339844 270.601562 688.671875 269.035156 693.566406 269.035156 C 704.203125 269.035156 711.082031 276.574219 712.152344 283.664062 C 716.792969 314.363281 711.792969 341.558594 697.6875 362.3125 C 686.429688 378.886719 669.425781 391.035156 651.042969 395.636719 C 640.378906 398.300781 629.859375 399.660156 619.777344 399.660156 C 577.644531 399.660156 549.117188 376.25 536.46875 354.34375 Z M 560.960938 457.078125 C 560.53125 456.855469 560.128906 456.628906 559.746094 456.398438 C 548.75 449.789062 560.847656 441.640625 564.726562 441.445312 C 570.578125 441.148438 571.628906 444.90625 571.820312 447.179688 C 572.292969 452.785156 570.960938 455.710938 569.035156 457.089844 C 566.460938 458.929688 562.832031 458.039062 560.960938 457.078125 Z M 534.636719 294.855469 C 534.636719 294.855469 526.210938 295.28125 529.617188 288.375 C 529.617188 288.375 530.359375 286.1875 535.25 286.550781 C 535.25 286.550781 541.285156 290.972656 534.636719 294.855469 Z M 525.554688 264.84375 C 515.863281 264.84375 506.738281 259.976562 499.804688 251.105469 C 492.910156 242.277344 489.007812 230.492188 488.8125 217.921875 C 488.617188 205.351562 492.15625 193.449219 498.773438 184.410156 C 505.527344 175.183594 514.679688 170.023438 524.53125 169.867188 C 544.640625 169.605469 561.316406 190.605469 561.722656 216.789062 C 561.765625 219.703125 561.601562 222.542969 561.253906 225.316406 C 571.382812 224.203125 581.46875 227.675781 586.125 234.339844 C 586.820312 235.335938 586.582031 236.71875 585.578125 237.414062 C 585.269531 237.632812 584.921875 237.746094 584.578125 237.789062 L 587.742188 264.039062 C 588.496094 263.953125 589.277344 264.242188 589.769531 264.898438 C 590.503906 265.871094 590.308594 267.257812 589.335938 267.988281 C 580.5625 274.617188 571.792969 277.109375 564.148438 277.113281 C 558.28125 277.113281 553.066406 275.640625 549.019531 273.453125 C 543.984375 270.726562 540.195312 266.675781 538.019531 261.972656 C 534.273438 263.761719 530.226562 264.777344 526.003906 264.839844 C 525.855469 264.839844 525.703125 264.84375 525.554688 264.84375 Z M 485.582031 401.777344 C 474.660156 415.773438 458.203125 390.492188 454.347656 382.109375 C 447.425781 367.066406 457.929688 362.820312 462.945312 363.65625 C 485.929688 367.464844 492.402344 393.042969 485.582031 401.777344 Z M 425.667969 300.792969 C 415.726562 284.542969 425.414062 272.402344 432.902344 269.5 C 447.007812 264.050781 459.1875 276.453125 456.363281 292.652344 C 454.300781 304.425781 436.992188 319.289062 425.667969 300.792969 Z M 431.578125 378.6875 C 429.824219 379.285156 429.246094 379.101562 428.953125 378.761719 L 427.957031 377.804688 C 427.304688 377.148438 426.675781 376.46875 426.164062 375.726562 C 425.621094 374.996094 425.121094 374.242188 424.648438 373.464844 L 423.367188 371.085938 C 422.929688 370.289062 422.519531 369.480469 422.152344 368.65625 C 421.785156 367.832031 421.351562 367.023438 421.023438 366.179688 C 420.34375 364.507812 419.855469 362.757812 419.515625 360.992188 C 418.78125 357.464844 418.769531 353.828125 418.761719 350.277344 C 418.78125 348.492188 418.609375 346.742188 418.636719 344.96875 C 418.664062 344.085938 418.738281 343.199219 418.929688 342.3125 C 419.015625 341.867188 419.136719 341.421875 419.269531 340.984375 C 419.316406 340.757812 419.453125 340.539062 419.792969 340.320312 C 420.09375 340.109375 420.632812 339.894531 421.425781 339.722656 C 423.023438 340.210938 423.417969 340.597656 423.539062 341.011719 L 423.894531 342.230469 C 424.101562 343.042969 424.265625 343.847656 424.367188 344.664062 C 424.582031 346.289062 424.71875 347.921875 425.121094 349.523438 C 425.898438 352.726562 427.152344 355.78125 428.066406 358.84375 C 429.105469 361.878906 429.628906 365.042969 430.566406 368.121094 L 431.273438 370.429688 C 431.5625 371.175781 431.808594 371.949219 432.019531 372.742188 L 432.648438 375.148438 L 432.929688 376.394531 C 433.058594 376.792969 432.914062 377.351562 431.578125 378.6875 Z M 443.886719 192.316406 C 451.183594 188.523438 454.855469 193.699219 454.652344 196.585938 C 453.875 207.492188 446.292969 208.285156 442.835938 206.558594 C 434.957031 202.621094 440.714844 193.957031 443.886719 192.316406 Z M 444.273438 131.191406 C 444.441406 130.410156 444.6875 129.65625 444.976562 128.914062 C 445.261719 128.175781 445.53125 127.429688 445.941406 126.738281 C 446.730469 125.351562 447.550781 123.992188 448.484375 122.714844 C 449.34375 121.398438 450.34375 120.179688 451.460938 119.066406 C 451.984375 118.492188 452.664062 118.039062 453.308594 117.570312 L 454.308594 116.910156 C 454.597656 116.664062 455.175781 116.632812 456.769531 117.519531 C 457.921875 118.964844 458.054688 119.503906 457.90625 119.820312 L 457.578125 120.859375 L 456.859375 122.820312 C 456.390625 124.113281 455.734375 125.25 455.285156 126.496094 C 455.054688 127.113281 454.769531 127.699219 454.585938 128.332031 C 454.390625 128.960938 454.222656 129.59375 454.003906 130.195312 C 453.773438 130.800781 453.636719 131.441406 453.386719 132.03125 C 453.15625 132.632812 452.898438 133.222656 452.6875 133.832031 C 451.753906 136.226562 450.597656 138.65625 449.90625 141.273438 C 449.550781 142.574219 449.496094 143.914062 449.359375 145.246094 C 449.3125 145.90625 449.179688 146.574219 449.03125 147.246094 L 448.761719 148.265625 C 448.730469 148.4375 448.589844 148.617188 448.289062 148.8125 L 447.714844 149.140625 L 446.765625 149.542969 C 446.425781 149.515625 446.046875 149.464844 445.738281 149.410156 L 445.09375 149.203125 C 444.746094 149.046875 444.566406 148.871094 444.507812 148.679688 C 444.339844 148.304688 444.191406 147.925781 444.078125 147.546875 C 443.824219 146.789062 443.691406 146.015625 443.621094 145.246094 C 443.507812 143.695312 443.59375 142.160156 443.542969 140.605469 C 443.460938 137.503906 443.433594 134.265625 444.273438 131.191406 Z M 497.546875 133.996094 C 500.953125 125.992188 508.773438 120.816406 517.476562 120.816406 C 526.175781 120.816406 533.996094 125.992188 537.402344 133.996094 C 537.960938 135.308594 537.351562 136.820312 536.039062 137.378906 C 535.710938 137.515625 535.371094 137.585938 535.03125 137.585938 C 534.03125 137.585938 533.074219 136.992188 532.660156 136.015625 C 530.058594 129.914062 524.105469 125.972656 517.476562 125.972656 C 510.847656 125.972656 504.890625 129.914062 502.289062 136.015625 C 501.738281 137.328125 500.21875 137.9375 498.910156 137.378906 C 497.597656 136.820312 496.988281 135.308594 497.546875 133.996094 Z M 522.246094 81.066406 C 538.390625 80.59375 536.589844 91.257812 535.03125 95.902344 C 530.3125 109.917969 518.867188 105.871094 514.570312 102.628906 C 497.960938 90.09375 516.527344 81.234375 522.246094 81.066406 Z M 614.824219 274.984375 C 615.261719 272.390625 618.742188 265.898438 624.042969 269.898438 C 626.226562 271.550781 630.890625 278.53125 624.230469 280.847656 C 621.613281 281.757812 613.734375 281.476562 614.824219 274.984375 Z M 630.34375 167.769531 C 637.996094 157.945312 648.332031 152.445312 659.4375 152.269531 C 659.617188 152.265625 659.792969 152.265625 659.964844 152.265625 C 682.476562 152.265625 701.046875 174.617188 701.480469 202.386719 C 701.6875 215.851562 697.652344 228.605469 690.109375 238.28125 C 682.457031 248.105469 672.125 253.605469 661.015625 253.78125 C 660.835938 253.78125 660.652344 253.785156 660.472656 253.785156 C 649.5625 253.785156 639.273438 248.617188 631.449219 239.191406 C 623.609375 229.75 619.179688 217.136719 618.972656 203.664062 C 618.765625 190.191406 622.796875 177.445312 630.34375 167.769531 Z M 639.007812 124.671875 C 642.414062 116.667969 650.234375 111.496094 658.9375 111.496094 C 667.636719 111.496094 675.457031 116.667969 678.863281 124.671875 C 679.421875 125.984375 678.8125 127.5 677.5 128.054688 C 677.171875 128.195312 676.832031 128.261719 676.492188 128.261719 C 675.492188 128.261719 674.535156 127.671875 674.121094 126.691406 C 671.527344 120.59375 665.566406 116.652344 658.9375 116.652344 C 652.3125 116.652344 646.351562 120.59375 643.757812 126.691406 C 643.199219 128.003906 641.683594 128.613281 640.371094 128.054688 C 639.0625 127.5 638.449219 125.984375 639.007812 124.671875 Z M 680.238281 59.867188 C 693.929688 63.128906 714.984375 73.652344 709.972656 92.011719 C 704.671875 111.441406 679.175781 100.613281 671.128906 89.140625 C 656.644531 68.46875 667.65625 56.867188 680.238281 59.867188 Z M 837.253906 291.417969 C 835.355469 290.21875 833.355469 289.082031 831.355469 287.925781 C 829.292969 286.742188 827.191406 285.597656 825.078125 284.460938 C 820.851562 282.199219 816.523438 280.066406 812.328125 277.6875 L 812.308594 277.679688 C 811.332031 277.125 810.980469 275.882812 811.539062 274.898438 C 812.015625 274.050781 813.011719 273.683594 813.910156 273.953125 C 818.601562 275.386719 823.101562 277.195312 827.628906 279.035156 C 829.988281 280.007812 832.347656 280.992188 834.695312 282.046875 C 831.605469 262.796875 823.941406 241.960938 811.832031 219.996094 C 811.292969 219.023438 811.226562 217.855469 811.648438 216.824219 C 811.804688 216.445312 826.933594 178.484375 810.3125 145.628906 C 799.730469 124.714844 778.59375 110.132812 747.496094 102.289062 C 746.449219 102.027344 745.570312 101.316406 745.09375 100.34375 C 744.832031 99.824219 718.878906 48.191406 667.269531 33.625 C 633.980469 24.234375 597.207031 32.027344 557.980469 56.78125 C 557.308594 57.207031 556.511719 57.410156 555.707031 57.335938 C 555.417969 57.3125 526.835938 55.074219 496.550781 66.289062 C 456.363281 81.175781 432.261719 111.585938 424.921875 156.679688 C 424.746094 157.738281 424.121094 158.664062 423.207031 159.226562 C 423.039062 159.332031 405.976562 169.972656 394.753906 190.078125 C 380.785156 215.117188 381.582031 243.152344 397.121094 273.488281 C 397.753906 274.726562 398.421875 275.96875 399.105469 277.222656 C 399.542969 278.023438 399.988281 278.824219 400.445312 279.628906 C 400.671875 280.019531 400.808594 280.445312 400.878906 280.890625 C 400.929688 281.226562 400.949219 281.574219 400.902344 281.917969 C 400.867188 282.179688 399.757812 291.4375 399.992188 305.351562 C 400.015625 306.578125 400.042969 307.847656 400.089844 309.148438 C 400.128906 310.378906 400.183594 311.640625 400.25 312.929688 C 401.539062 338.433594 407.699219 374.675781 429.828125 401.945312 C 448.382812 424.800781 475.21875 437.796875 509.601562 440.570312 C 510.847656 440.667969 511.949219 441.386719 512.550781 442.484375 C 513.050781 443.398438 519.679688 455.03125 535.332031 463.230469 C 539.472656 465.40625 544.25 467.332031 549.710938 468.761719 C 550.960938 469.089844 552.238281 469.386719 553.554688 469.65625 C 554.792969 469.910156 556.0625 470.140625 557.363281 470.34375 C 564.449219 471.429688 572.503906 471.671875 581.601562 470.660156 C 582.804688 470.527344 584.023438 470.371094 585.269531 470.191406 C 586.464844 470.019531 587.671875 469.832031 588.90625 469.617188 C 590.4375 469.347656 591.988281 469.042969 593.570312 468.703125 C 596.96875 467.976562 600.484375 467.097656 604.132812 466.027344 C 604.472656 465.929688 604.820312 465.878906 605.167969 465.878906 C 605.617188 465.878906 606.066406 465.964844 606.492188 466.125 C 606.714844 466.210938 625.078125 473.128906 649.339844 474.164062 C 651.847656 474.265625 654.425781 474.3125 657.050781 474.277344 C 658.308594 474.261719 659.574219 474.226562 660.851562 474.175781 C 662.101562 474.125 663.355469 474.046875 664.621094 473.960938 C 665.21875 473.917969 665.820312 473.882812 666.417969 473.828125 C 673.621094 473.214844 680.464844 472.003906 686.972656 470.238281 C 688.164062 469.917969 689.34375 469.578125 690.503906 469.214844 C 691.683594 468.847656 692.851562 468.460938 694.003906 468.058594 C 695.488281 467.539062 696.949219 466.992188 698.394531 466.40625 C 707.332031 462.796875 715.503906 457.949219 722.902344 451.875 C 722.988281 443.148438 725.488281 433.328125 730.414062 422.507812 C 740.210938 400.96875 758.804688 389.261719 785.714844 387.582031 C 788.664062 385.695312 791.71875 383.582031 794.800781 381.242188 C 796.214844 376.222656 799.0625 370.3125 804.777344 365.984375 C 807.875 363.644531 811.480469 362.027344 815.566406 361.101562 C 818.261719 357.703125 820.804688 354.0625 823.121094 350.160156 C 822.980469 346.605469 822.582031 343.066406 821.925781 339.589844 C 821.1875 335.734375 820.089844 331.960938 818.566406 328.363281 C 815.542969 321.148438 810.6875 314.816406 804.644531 309.632812 L 804.628906 309.613281 C 803.777344 308.882812 803.679688 307.601562 804.410156 306.75 C 805.082031 305.96875 806.226562 305.824219 807.066406 306.382812 C 810.664062 308.746094 813.949219 311.644531 816.808594 314.945312 C 819.660156 318.242188 822.0625 321.941406 824.007812 325.855469 C 825.953125 329.765625 827.433594 333.898438 828.503906 338.117188 C 829.589844 342.335938 830.207031 346.644531 830.527344 350.960938 C 830.535156 351.019531 830.523438 351.074219 830.527344 351.132812 C 830.683594 354.515625 830.625 357.695312 830.453125 360.570312 C 835.21875 361.128906 840.390625 362.304688 845.96875 364.085938 C 852.894531 366.3125 864.429688 371.988281 874.292969 380.085938 C 888.480469 335.152344 857.875 305.550781 837.253906 291.417969 Z M 703.671875 523.664062 L 709.390625 541.960938 C 709.09375 542.09375 708.78125 542.222656 708.484375 542.347656 C 704.746094 543.722656 700.898438 544.789062 696.894531 545.195312 C 693.039062 545.652344 689.125 545.714844 685.1875 545.519531 L 680.269531 528.40625 L 679.25 524.847656 L 678.226562 521.296875 L 666.699219 481.195312 C 666.726562 481.191406 666.757812 481.191406 666.785156 481.191406 C 673.804688 480.601562 681.375 479.378906 689.148438 477.207031 L 701.410156 516.417969 L 702.539062 520.039062 Z M 591.398438 520.792969 L 595.011719 539.292969 C 594.269531 539.585938 593.507812 539.832031 592.742188 540.058594 C 591.734375 540.339844 590.753906 540.695312 589.75 540.96875 L 586.695312 541.589844 C 585.695312 541.859375 584.652344 541.90625 583.621094 542.039062 C 582.59375 542.152344 581.566406 542.308594 580.53125 542.277344 C 576.394531 542.519531 572.222656 542.03125 568.136719 541.082031 C 567.75 541 567.378906 540.890625 567.003906 540.789062 L 564.558594 522.921875 L 564.058594 519.265625 L 563.5625 515.617188 L 558.382812 477.804688 C 565.632812 478.75 573.828125 478.910156 583.011719 477.871094 L 589.957031 513.414062 Z M 356.121094 294.882812 L 355.152344 295.1875 C 354.503906 295.363281 353.835938 295.539062 353.179688 295.550781 C 351.863281 295.667969 350.542969 295.5625 349.242188 295.351562 C 347.925781 295.210938 346.636719 294.914062 345.324219 294.617188 C 344.066406 294.234375 342.820312 293.726562 341.710938 293.003906 C 339.414062 291.667969 337.578125 289.683594 335.863281 287.777344 C 335.019531 286.808594 334.0625 285.988281 333.246094 285.007812 C 332.835938 284.519531 332.480469 283.980469 332.203125 283.375 C 332.0625 283.082031 331.941406 282.757812 331.832031 282.429688 C 331.761719 282.289062 331.777344 282.058594 331.929688 281.730469 L 332.261719 281.160156 C 332.445312 280.917969 332.6875 280.625 332.90625 280.371094 L 333.820312 279.929688 L 334.433594 279.699219 C 334.757812 279.601562 334.96875 279.59375 335.085938 279.667969 C 335.359375 279.785156 335.617188 279.90625 335.875 280.039062 C 336.375 280.296875 336.847656 280.578125 337.261719 280.917969 C 338.113281 281.566406 338.910156 282.289062 339.875 282.789062 C 341.785156 283.8125 343.886719 284.375 345.75 285.164062 C 347.667969 285.828125 349.328125 287.023438 351.242188 287.828125 C 352.179688 288.285156 353.167969 288.566406 354.144531 289.054688 L 355.648438 289.820312 L 356.417969 290.269531 C 356.691406 290.359375 356.921875 290.820312 357.144531 292.644531 C 356.78125 294.421875 356.4375 294.835938 356.121094 294.882812 Z M 392.59375 280.636719 C 377.507812 279.507812 365.183594 274.753906 355.816406 266.40625 C 349.957031 261.179688 346.015625 255.21875 343.355469 249.574219 C 336.515625 254.734375 327.359375 258.867188 315.742188 262.039062 C 311.914062 263.078125 306.976562 263.882812 301.699219 264.144531 C 310.226562 280.722656 321.726562 292.777344 336.082031 300.136719 C 355.980469 310.328125 377.664062 309.464844 392.527344 306.886719 C 392.28125 294.566406 393.09375 285.5 393.449219 282.222656 C 393.148438 281.6875 392.878906 281.164062 392.59375 280.636719 " fill-opacity="1" fill-rule="nonzero"/></svg>